# xmcd
#
# Track frame offsets: 
#        150
#        8617
#        18450
#        25556
#        37475
#        44139
#        55830
#        63434
#        74156
#        92535
#        105189
#        110049
#        119575
#        125805
#        134556
#        140934
#        155363
#        167564
#        176142
#
# Disc length: 2450 seconds
#
# Revision: 0
# Processed by: cddbd v1.5.2PL0 Copyright (c) Steve Scherf et al.
# Submitted via: ExactAudioCopy v1.0b1
#
DISCID=1e099013
DTITLE=CEF Press - Bog chce cie slyszec
DYEAR=2004
DGENRE=Christian Childrens
TTITLE0=01. Bog zbawil mnie
TTITLE1=02. Tylko jedno jest imie pod niebem
TTITLE2=03. Prosby do Boga
TTITLE3=04. Wielki jest nasz swiat
TTITLE4=05. Cudowne Boze Slowo
TTITLE5=06. Bog chce cie slyszec
TTITLE6=07. Nowina dobra - w Jezusie
TTITLE7=08. Szukaj, szukaj
TTITLE8=09. Ja chcialbym byc jak Jezus
TTITLE9=10. Wiesz, co to znaczy?
TTITLE10=11. Sluchaj co dzien
TTITLE11=12. Jezus to imie
TTITLE12=13. Kiedy Jezus przyjdzie znow
TTITLE13=14. Wejdz w serce me
TTITLE14=15. Nic nie oddzieli mnie od Boga
TTITLE15=16. Mow i przypomnij slowa te
TTITLE16=17. Wszystko w Chrystusie
TTITLE17=18. Misjonarzem badz
TTITLE18=19. Pana wnet ujrzymy
EXTD=
EXTT0=
EXTT1=
EXTT2=
EXTT3=
EXTT4=
EXTT5=
EXTT6=
EXTT7=
EXTT8=
EXTT9=
EXTT10=
EXTT11=
EXTT12=
EXTT13=
EXTT14=
EXTT15=
EXTT16=
EXTT17=
EXTT18=
PLAYORDER=
